<mxfile host="app.diagrams.net" modified="2024-01-31T06:48:57.790Z" agent="Mozilla/5.0 (Windows NT 10.0; Win64; x64) AppleWebKit/537.36 (KHTML, like Gecko) Chrome/120.0.0.0 Safari/537.36" version="23.0.2" etag="fpjRvWMJM_vUfp_H9VUm" type="github">
  <diagram name="第 1 页" id="Lc7nl873TsWlCIYj9Dnp">
    <mxGraphModel>
      <root>
        <mxCell id="0" />
        <mxCell id="1" parent="0" />
      </root>
    </mxGraphModel>
  </diagram>
</mxfile>
